<?xml version="1.0" encoding="iso-8859-1"?>
<!-- Generator: Adobe Illustrator 19.0.0, SVG Export Plug-In . SVG Version: 6.00 Build 0)  -->
<svg version="1.1" id="Layer_1" xmlns="http://www.w3.org/2000/svg" xmlns:xlink="http://www.w3.org/1999/xlink" x="0px" y="0px"
	 viewBox="0 0 512 512" style="enable-background:new 0 0 512 512;" xml:space="preserve">
<g>
	<g>
		<path d="M179.2,170.667l49.067-49.067c8.533-8.533,8.533-21.333,0-29.867s-21.333-8.533-29.867,0l-64,64
			c-8.533,8.533-6.4,21.333,0,29.867l64,64c8.533,8.533,21.333,8.533,29.867,0s8.533-21.333,0-29.867L179.2,170.667z"/>
	</g>
</g>
<g>
	<g>
		<path d="M377.6,155.733l-64-64c-8.533-8.533-21.333-8.533-29.867,0s-8.533,21.333,0,29.867l49.067,49.067l-49.067,49.067
			c-8.533,8.533-8.533,21.333,0,29.867s21.333,8.533,29.867,0l64-64C386.133,177.067,386.133,164.267,377.6,155.733z"/>
	</g>
</g>
<g>
	<g>
		<path d="M452.267,0H59.733C25.6,0,0,25.6,0,59.733V320c0,12.8,8.533,21.333,21.333,21.333h469.333
			c12.8,0,21.333-8.533,21.333-21.333V59.733C512,25.6,486.4,0,452.267,0z M469.333,298.667H42.667V59.733
			c0-8.533,8.533-17.067,17.067-17.067h392.533c8.533,0,17.067,8.533,17.067,17.067V298.667z"/>
	</g>
</g>
<g>
	<g>
		<path d="M490.667,298.667H21.333C8.533,298.667,0,307.2,0,320v46.933c0,34.133,25.6,59.733,59.733,59.733h392.533
			c32,0,59.733-25.6,59.733-59.733V320C512,307.2,503.467,298.667,490.667,298.667z M469.333,366.933
			c0,8.533-8.533,17.067-17.067,17.067H59.733c-8.533,0-17.067-8.533-17.067-17.067v-25.6h426.667V366.933z"/>
	</g>
</g>
<g>
	<g>
		<path d="M362.667,486.4l-21.333-85.333C339.2,392.533,330.667,384,320,384H192c-10.667,0-19.2,6.4-21.333,17.067L149.333,486.4
			c-2.133,12.8,6.4,25.6,21.333,25.6h170.667C356.267,512,364.8,499.2,362.667,486.4z M198.4,469.333l10.667-42.667h93.867
			l10.667,42.667H198.4z"/>
	</g>
</g>
<g>
	<g>
		<path d="M362.667,469.333H149.333c-12.8,0-21.333,8.533-21.333,21.333S136.533,512,149.333,512h213.333
			c12.8,0,21.333-8.533,21.333-21.333S375.467,469.333,362.667,469.333z"/>
	</g>
</g>
<g>
</g>
<g>
</g>
<g>
</g>
<g>
</g>
<g>
</g>
<g>
</g>
<g>
</g>
<g>
</g>
<g>
</g>
<g>
</g>
<g>
</g>
<g>
</g>
<g>
</g>
<g>
</g>
<g>
</g>
</svg>
